<svg version="1.1" id="main-chart" xmlns="http://www.w3.org/2000/svg" x="0" y="0" viewBox="0 0 306.6 306.6" style="enable-background:new 0 0 306.6 306.6" xml:space="preserve"><style></style><linearGradient id="svg_36fa7726-7537-4e9a-b2c7-61c1e4b092ce_svg_86de7b81-5552-45de-b5e9-08db53ee8a4a_main-chart_1_" gradientUnits="userSpaceOnUse" x1="102.257" y1="199.53" x2="21.641" y2="108.17" gradientTransform="matrix(1 0 0 -1 0 307.097)"><stop offset="0" style="stop-color:#FF70C6"></stop><stop offset="1" style="stop-color:#EC4A77"></stop></linearGradient><path class="st0" d="M82.4 253c-63-45-66-131-19.4-183.3"></path><linearGradient id="svg_f6715768-bbd8-4abd-9c43-db41135ecf23_svg_94956815-cd21-4abc-b698-6db16eb7929f_main-chart_2_" gradientUnits="userSpaceOnUse" x1="250.576" y1="50.758" x2="83.523" y2="60.311" gradientTransform="matrix(1 0 0 -1 0 307.097)"><stop offset="0" style="stop-color:#3866F5"></stop><stop offset="1" style="stop-color:#BD00FF"></stop></linearGradient><path class="st1" d="M248.4 231c-44 52.5-122.2 60-173.1 15.8"></path><linearGradient id="svg_cf7f8a6a-1c80-402a-937c-50472707f971_svg_f0624cb9-f40d-4959-b57a-6655020e88a8_main-chart_3_" gradientUnits="userSpaceOnUse" x1="201.547" y1="115.943" x2="279.26" y2="206.018" gradientTransform="matrix(1 0 0 -1 0 307.097)"><stop offset="0" style="stop-color:#F6C043"></stop><stop offset="1" style="stop-color:#FF9634"></stop></linearGradient><path class="st2" d="M233.9 60.5c50.9 44.2 56.4 121.2 12.2 172.1"></path><linearGradient id="svg_d8d84272-cfd5-4fb9-b617-5c1f6b6ed3cf_svg_db00955b-6138-4738-a3c9-a88ee5087c73_main-chart_4_" gradientUnits="userSpaceOnUse" x1="193.496" y1="200.4" x2="105.43" y2="281.617" gradientTransform="matrix(1 0 0 -1 0 307.097)"><stop offset="0" style="stop-color:#6BDAB6"></stop><stop offset="1" style="stop-color:#66E0F6"></stop></linearGradient><path class="st3" d="M62.9 70c45.8-49.4 124.6-52.8 174-7"></path><linearGradient id="svg_695ffd05-abed-44db-aa9e-8ee3910d7491_svg_9d09fd90-d938-445c-bea2-c815ca9448f0_main-chart_5_" gradientUnits="userSpaceOnUse" x1="51.336" y1="233.72" x2="36.581" y2="96.015" gradientTransform="matrix(1 0 0 -1 0 307.097)"><stop offset="0" style="stop-color:#FF70C6"></stop><stop offset="1" style="stop-color:#EC4A77"></stop></linearGradient><path class="st4" d="M64.9 68C34.4 99.4 23.4 145.5 35 183.5"></path><path class="st5" d="M148.4 155.1v-5.2h-5.2V176c-.1.9-.5 1.7-1.1 2.3-.6.6-1.5.9-2.4.9-.9 0-1.7-.3-2.4-.9-.6-.6-1-1.4-1.1-2.3v-12.2c0-.9.4-1.8 1-2.5.7-.7 1.5-1 2.5-1h1.7v-5.2h-1.7c-2.3 0-4.5.9-6.2 2.6-1.6 1.6-2.5 3.8-2.5 6.2V176c0 2.3.9 4.5 2.6 6.2 1.6 1.6 3.8 2.6 6.2 2.6 2.3 0 4.5-.9 6.2-2.6 1.6-1.6 2.6-3.8 2.6-6.2v-20.9zM172.6 118.4h-20.7c-2.3 0-4.5.9-6.2 2.6-1.6 1.6-2.6 3.8-2.6 6.2V141.1h5.2v-13.9c0-.9.4-1.8 1-2.5.7-.7 1.5-1 2.5-1h20.7c.9.1 1.7.5 2.3 1.1.6.6.9 1.5.9 2.4 0 .9-.3 1.7-.9 2.4-.6.6-1.4 1-2.3 1.1h-22.4v5.2h22.4c2.3 0 4.5-.9 6.2-2.6 1.6-1.6 2.6-3.8 2.6-6.2s-.9-4.5-2.6-6.2c-1.5-1.5-3.7-2.5-6.1-2.5z"></path><path class="st5" d="M164.1 142.9h-24.4c-.9 0-1.8-.4-2.5-1-.7-.7-1-1.5-1-2.5s.4-1.8 1-2.5c.7-.7 1.5-1 2.5-1h1.7v-5.2h-1.7c-2.3.1-4.4 1-6 2.7-1.6 1.6-2.4 3.8-2.4 6.1s.9 4.4 2.4 6.1c1.6 1.6 3.7 2.6 6 2.7h24.4c.9.1 1.7.5 2.3 1.1.6.6.9 1.5.9 2.4 0 .9-.3 1.7-.9 2.4-.6.6-1.4 1-2.3 1.1h-13.9v5.2h13.9c2.3-.1 4.4-1 6-2.7 1.6-1.6 2.5-3.8 2.5-6.1s-.9-4.4-2.5-6.1c-1.6-1.7-3.7-2.7-6-2.7z"></path></svg>