<svg width="68" height="68" viewBox="0 0 68 68" fill="none" xmlns="http://www.w3.org/2000/svg">
                <path d="M36.3397 36.0786H23.1897C20.0707 36.0786 17.0795 34.8396 14.8741 32.6342C12.6687 30.4287 11.4297 27.4375 11.4297 24.3186C11.4297 21.1996 12.6687 18.2084 14.8741 16.003C17.0795 13.7976 20.0707 12.5586 23.1897 12.5586H53.6097V16.5586H23.1897C21.1316 16.5586 19.1578 17.3762 17.7025 18.8314C16.2473 20.2867 15.4297 22.2605 15.4297 24.3186C15.4297 26.3767 16.2473 28.3505 17.7025 29.8057C19.1578 31.261 21.1316 32.0786 23.1897 32.0786H36.3397V36.0786Z" fill="#66E0F6"></path>
                <path d="M45.8097 55.5892H14.3896V51.5892H45.8097C46.8515 51.6266 47.8902 51.4537 48.8637 51.0809C49.8372 50.708 50.7257 50.1428 51.4759 49.419C52.2262 48.6952 52.823 47.8276 53.2305 46.8681C53.6381 45.9085 53.8482 44.8767 53.8482 43.8342C53.8482 42.7917 53.6381 41.7599 53.2305 40.8004C52.823 39.8408 52.2262 38.9733 51.4759 38.2495C50.7257 37.5257 49.8372 36.9604 48.8637 36.5876C47.8902 36.2147 46.8515 36.0418 45.8097 36.0792H45.6396V32.0792H45.8097C47.3822 32.0333 48.9479 32.3035 50.4142 32.8736C51.8805 33.4437 53.2175 34.3022 54.346 35.3983C55.4745 36.4944 56.3716 37.8057 56.9843 39.2548C57.5969 40.7038 57.9125 42.261 57.9125 43.8342C57.9125 45.4074 57.5969 46.9646 56.9843 48.4137C56.3716 49.8627 55.4745 51.1741 54.346 52.2702C53.2175 53.3662 51.8805 54.2248 50.4142 54.7949C48.9479 55.365 47.3822 55.6351 45.8097 55.5892Z" fill="#66E0F6"></path>
                <path d="M22.3499 53.4338C22.3499 49.0348 18.7839 45.4688 14.3849 45.4688C9.98597 45.4688 6.41992 49.0348 6.41992 53.4338C6.41992 57.8327 9.98597 61.3988 14.3849 61.3988C18.7839 61.3988 22.3499 57.8327 22.3499 53.4338Z" fill="url(#svg_d35c1d7f-e2c9-4f5d-8a00-cc4e79cf6420_solve-icon-1)"></path>
                <path d="M37.36 26.1094H30.57C28.0461 26.1094 26 28.1554 26 30.6794V37.4694C26 39.9933 28.0461 42.0394 30.57 42.0394H37.36C39.8839 42.0394 41.93 39.9933 41.93 37.4694V30.6794C41.93 28.1554 39.8839 26.1094 37.36 26.1094Z" fill="url(#svg_4fcb1c4e-ec89-422a-b35b-192b74e4cac1_solve-icon-2)"></path>
                <path d="M61.5696 14.5666C61.5696 10.1676 58.0036 6.60156 53.6046 6.60156C49.2057 6.60156 45.6396 10.1676 45.6396 14.5666C45.6396 18.9655 49.2057 22.5316 53.6046 22.5316C58.0036 22.5316 61.5696 18.9655 61.5696 14.5666Z" fill="url(#svg_c0764025-4ee3-46f7-a718-63a07a167c55_solve-icon-3)"></path>
                <defs>
                <linearGradient id="svg_d35c1d7f-e2c9-4f5d-8a00-cc4e79cf6420_solve-icon-1" x1="6.41992" y1="53.4388" x2="22.3599" y2="53.4388" gradientUnits="userSpaceOnUse">
                <stop offset="0" stop-color="#6BDAB6"></stop>
                <stop offset="1" stop-color="#66E0F6"></stop>
                </linearGradient>
                <linearGradient id="svg_4fcb1c4e-ec89-422a-b35b-192b74e4cac1_solve-icon-2" x1="440.18" y1="569.004" x2="694.104" y2="569.004" gradientUnits="userSpaceOnUse">
                <stop offset="0" stop-color="#6BDAB6"></stop>
                <stop offset="1" stop-color="#66E0F6"></stop>
                </linearGradient>
                <linearGradient id="svg_c0764025-4ee3-46f7-a718-63a07a167c55_solve-icon-3" x1="772.685" y1="238.542" x2="1026.61" y2="238.542" gradientUnits="userSpaceOnUse">
                <stop offset="0" stop-color="#6BDAB6"></stop>
                <stop offset="1" stop-color="#66E0F6"></stop>
                </linearGradient>
                </defs>
                </svg>