<svg width="499" height="461" viewBox="0 0 499 461" fill="none" xmlns="http://www.w3.org/2000/svg">
<circle cx="145" cy="316" r="144.5" stroke="#C4C4C4" stroke-dasharray="8 8"></circle>
<path d="M498.823 127.748C498.823 57.6541 441.547 0 371.912 0C302.277 0 245 57.6541 245 127.748C329.624 127.748 414.199 127.748 498.823 127.748Z" fill="#3866F5"></path>
<path d="M498.823 421.748C498.823 351.654 441.547 294 371.912 294C302.277 294 245 351.654 245 421.748C329.624 421.748 414.199 421.748 498.823 421.748Z" fill="#BD00FF"></path>
<path d="M498.823 274.748C498.823 204.654 441.547 147 371.912 147C302.277 147 245 204.654 245 274.748C329.624 274.748 414.199 274.748 498.823 274.748Z" fill="#7B33FB"></path>
</svg>